<svg xmlns="http://www.w3.org/2000/svg" width="430" height="800" viewBox="0 0 430 800"><rect width="430" height="800" fill="#f8f5ef"/><rect width="430" height="78" fill="#1c3e54"/><text x="24" y="36" font-family="Arial" font-size="18" font-weight="700" fill="white">Bespoke Ops</text><text x="24" y="57" font-family="Arial" font-size="11" fill="#d8e4e8">Command workspace</text><rect x="18" y="96" width="394" height="126" rx="12" fill="#0d212f"/><text x="34" y="122" font-family="Arial" font-size="10" font-weight="700" fill="#c7d6dd">BROKERAGE OPERATIONS</text><text x="34" y="151" font-family="Arial" font-size="23" font-weight="700" fill="white">Brokerage Command Centre</text><text x="34" y="176" font-family="Arial" font-size="12" fill="#dce6eb">Requests, listings, offers, files and automation in one place.</text><rect x="34" y="190" width="100" height="24" rx="8" fill="#2c4d62"/><rect x="145" y="190" width="100" height="24" rx="8" fill="#2c4d62"/><rect x="256" y="190" width="100" height="24" rx="8" fill="#2c4d62"/><text x="84" y="206" font-family="Arial" font-size="10" font-weight="700" text-anchor="middle" fill="white">Intake</text><text x="195" y="206" font-family="Arial" font-size="10" font-weight="700" text-anchor="middle" fill="white">Draft</text><text x="306" y="206" font-family="Arial" font-size="10" font-weight="700" text-anchor="middle" fill="white">Monitor</text><rect x="18" y="242" width="124" height="84" rx="10" fill="#fcfaf6" stroke="#e5e8e9"/><rect x="153" y="242" width="124" height="84" rx="10" fill="#fcfaf6" stroke="#e5e8e9"/><rect x="288" y="242" width="124" height="84" rx="10" fill="#fcfaf6" stroke="#e5e8e9"/><text x="80" y="276" font-family="Arial" font-size="22" font-weight="700" text-anchor="middle" fill="#1c3e54">4</text><text x="215" y="276" font-family="Arial" font-size="22" font-weight="700" text-anchor="middle" fill="#307e59">4/8</text><text x="350" y="276" font-family="Arial" font-size="22" font-weight="700" text-anchor="middle" fill="#b38036">86%</text><text x="80" y="299" font-family="Arial" font-size="10" font-weight="700" text-anchor="middle" fill="#171e24">Open Work</text><text x="215" y="299" font-family="Arial" font-size="10" font-weight="700" text-anchor="middle" fill="#171e24">Launch Ready</text><text x="350" y="299" font-family="Arial" font-size="10" font-weight="700" text-anchor="middle" fill="#171e24">Automation</text><rect x="18" y="346" width="394" height="344" rx="10" fill="#fcfaf6" stroke="#e5e8e9"/><text x="34" y="375" font-family="Arial" font-size="17" font-weight="700" fill="#171e24">Today's Operating Plan</text><text x="34" y="397" font-family="Arial" font-size="10" fill="#626c74">Fictional demo records showing intended brokerage workflows</text><g font-family="Arial"><text x="34" y="438" font-size="14" font-weight="700" fill="#171e24">Listing Launches</text><text x="34" y="459" font-size="11" fill="#626c74">24 Lakeshore needs disclosure and seller approval.</text><text x="34" y="504" font-size="14" font-weight="700" fill="#171e24">AI Drafts Pending Review</text><text x="34" y="525" font-size="11" fill="#626c74">Listing email and offer recap ready for compliance review.</text><text x="34" y="570" font-size="14" font-weight="700" fill="#171e24">Offer Summaries</text><text x="34" y="591" font-size="11" fill="#626c74">88 Bloor terms summary due before client call.</text><text x="34" y="636" font-size="14" font-weight="700" fill="#171e24">Compliance / File Control</text><text x="34" y="657" font-size="11" fill="#626c74">FINTRAC and seller disclosure still require attention.</text></g><rect x="0" y="730" width="430" height="70" fill="white"/><text x="43" y="770" font-family="Arial" font-size="10" font-weight="700" text-anchor="middle" fill="#1c3e54">Command</text><text x="129" y="770" font-family="Arial" font-size="10" text-anchor="middle" fill="#848c92">Intake</text><text x="215" y="770" font-family="Arial" font-size="10" text-anchor="middle" fill="#848c92">AI Studio</text><text x="301" y="770" font-family="Arial" font-size="10" text-anchor="middle" fill="#848c92">Listings</text><text x="387" y="770" font-family="Arial" font-size="10" text-anchor="middle" fill="#848c92">Automation</text></svg>